<?xml version="1.0" encoding="utf-8"?>
<!-- Generator: Adobe Illustrator 24.2.0, SVG Export Plug-In . SVG Version: 6.00 Build 0)  -->
<svg version="1.1" id="Livello_1" xmlns="http://www.w3.org/2000/svg" xmlns:xlink="http://www.w3.org/1999/xlink" x="0px" y="0px"
	 viewBox="0 0 1920 1080" style="enable-background:new 0 0 1920 1080;" xml:space="preserve">
<style type="text/css">
	.st0{clip-path:url(#SVGID_1_);}
	.st1{fill:#00E0FF;}
	.st2{fill:url(#SVGID_2_);}
</style>
<g>
	<defs>
		<path id="SVGID_4_" d="M1463.8,540.1c0,50.1-18.6,94.4-51.4,126.5c-33.3,32.6-81.2,51.3-132.3,51.3c-59.9,0-114.9-26.7-148.5-69.7
			c-14.7-18.9-24.9-41.1-30.4-65.1H950.9v-43.4c0.3-54.4-40.6-96.9-93.9-97.3c-53.8-0.4-95.2,41.3-96,96.7
			c-0.8,54.6,39.9,97.7,93,98.7c17.2,0.3,33-3.5,46.6-10.6l37.4,73.4c-24.9,11.2-53,17.3-82.1,17.3c-59.9,0-114.9-26.7-148.5-69.7
			c-23.2-29.8-35.2-67.9-35.2-108.1c0-50,19.9-96.3,54.2-128.6c33.1-31.2,79.6-49.2,129.4-49.2c55.1,0,105.4,21.9,139.1,59.1
			c18.9,20.9,32.4,46.8,39.3,75.1h150.7V540c-0.3,54.1,40.2,96.8,93,97.7c55,1,95.9-40,96.8-97c0.9-54.9-40.2-97.9-93.9-98.4
			c-16.5-0.1-31.8,3.7-45.1,10.7l-37.4-73.4c24.8-11.2,52.6-17.3,81.6-17.3c55.1,0,105.4,21.9,139.1,59.1
			C1447.6,452.6,1463.8,495.2,1463.8,540.1z M147.1,700.8l0-199.2c0-5.7,2.4-13.2,5.1-18.3c15.8-30.2,48.4-46.4,82-40.6
			c19.3,3.3,34,13.8,43.7,31.1c7.2,12.8,8.3,26.8,8.3,40.9l0,185.6l0,10.5h88.4v-9.9V494.2c0-3.3,0.2-7.9,1.7-10.6
			c8.1-14.7,19.1-26.7,34.5-34.2c27.1-13.3,58.4-9.7,79,9.2c15.8,14.5,20.2,33.4,20.2,54l0,188l0,10.3h88.5v-6l-0.1-200.5
			c-0.1-29.7-5.9-58.1-22.2-83.6c-23.9-37.5-59.3-55.6-102.8-58.3c-36.9-2.3-70.6,6.8-97.9,33.2c-8.1,7.9-14.7,17.4-22.2,26.4
			c0,0,0,0,0,0c-22.9-36.3-56.4-55.2-98.8-59.2c-42.1-4-76.1,7.4-107.6,39.2l0.1-33.8H60v342.4h87.1L147.1,700.8z M1759.8,368.4
			l-86.2,187.3l-85.9-187.3h-101L1661.4,711l24.2,0L1860,368.4H1759.8z"/>
	</defs>
	<clipPath id="SVGID_1_">
		<use xlink:href="#SVGID_4_"  style="overflow:visible;"/>
	</clipPath>
	<g class="st0">
		<rect x="-200.4" y="96.1" class="st1" width="2595.3" height="1297.7"/>
		<linearGradient id="SVGID_2_" gradientUnits="userSpaceOnUse" x1="-200.4181" y1="744.9581" x2="2394.9043" y2="744.9581">
			<stop  offset="0" style="stop-color:#0054FF"/>
			<stop  offset="0.1" style="stop-color:#0054FF"/>
			<stop  offset="0.95" style="stop-color:#0054FF;stop-opacity:0"/>
			<stop  offset="1" style="stop-color:#0054FF;stop-opacity:0"/>
		</linearGradient>
		<rect x="-200.4" y="96.1" class="st2" width="2595.3" height="1297.7"/>
	</g>
</g>
</svg>
