<?xml version="1.0" encoding="UTF-8"?>
<svg width="90px" height="46px" viewBox="0 0 90 46" version="1.1" xmlns="http://www.w3.org/2000/svg" xmlns:xlink="http://www.w3.org/1999/xlink">
    <!-- Generator: Sketch 55.2 (78181) - https://sketchapp.com -->
    <title>logo</title>
    <desc>Created with Sketch.</desc>
    <defs>
        <linearGradient x1="-0.0546734096%" y1="49.9999986%" x2="99.9108593%" y2="49.9999986%" id="linearGradient-1">
            <stop stop-color="#0AF96B" offset="0%"></stop>
            <stop stop-color="#0AF86E" offset="29%"></stop>
            <stop stop-color="#0BF676" offset="47%"></stop>
            <stop stop-color="#0CF185" offset="62%"></stop>
            <stop stop-color="#0EEB99" offset="75.4%"></stop>
            <stop stop-color="#11E3B4" offset="87.6%"></stop>
            <stop stop-color="#14DAD4" offset="99%"></stop>
            <stop stop-color="#14D9D7" offset="100%"></stop>
        </linearGradient>
    </defs>
    <g id="Symbols" stroke="none" stroke-width="1" fill="none" fill-rule="evenodd">
        <g id="Desktop/menu-normal-assistenza/classic" transform="translate(-96.000000, -16.000000)" fill="url(#linearGradient-1)" fill-rule="nonzero">
            <g id="menu-desktop/white">
                <path d="M185.748742,46.8915547 C185.541114,45.9484169 184.950253,45.1358263 184.119531,44.6509562 C183.288809,44.1660861 182.29415,44.0532519 181.376907,44.3398326 C179.678493,44.9207619 178.682158,46.689152 179.059491,48.4529991 C179.591836,51.0884157 177.407825,53.484249 175.108831,54.3946656 C173.060447,55.1303973 170.82336,55.1387394 168.769607,54.4183045 C167.890458,54.1308704 167.037027,53.7692511 166.218417,53.3373045 C168.570373,50.4630416 169.881422,46.870327 169.936573,43.1483048 C169.936573,36.0157495 165.410371,32.287194 160.939436,32.287194 C156.468501,32.287194 151.942299,36.018305 151.942299,43.1483048 C152.009577,46.9839449 153.400812,50.6767223 155.877712,53.5941379 C152.946463,54.8099164 149.677892,54.9233172 146.670305,53.9135823 C146.265667,53.7731383 145.869267,53.6097467 145.483011,53.4241934 C147.879166,50.5352404 149.220159,46.9086025 149.283115,43.147027 C149.283115,36.0189439 144.756913,32.2897496 140.285978,32.2897496 C135.815043,32.2897496 131.288841,36.0189439 131.288841,43.1463881 C131.319569,46.9205192 132.618019,50.573368 134.973328,53.5117212 C134.551266,53.7599359 134.116579,53.9857723 133.671052,54.1883045 C132.575247,54.5537349 131.397954,54.5938826 130.280053,54.3039434 C128.189565,53.6235576 126.779407,51.6581156 126.796307,49.448388 L126.796307,29.148333 C126.796307,22.1441943 121.265764,16.2478889 114.472331,16.0051111 C114.329399,16 114.166138,16 114.028922,16 C106.962708,16.0059417 101.230976,21.7561671 101.207541,28.8627496 L101.207541,34.4907217 L99.8607975,34.4907217 C97.7206243,34.5181565 96,36.2708166 96,38.4234022 C96,40.5759877 97.7206243,42.3286478 99.8607975,42.3560826 L101.207541,42.3560826 L101.207541,57.7360544 C101.235957,60.070785 103.12593,61.948441 105.44756,61.948441 C107.769191,61.948441 109.659164,60.070785 109.68758,57.7360544 L109.68758,42.3560826 L111.034959,42.3560826 C113.175132,42.3286478 114.895756,40.5759877 114.895756,38.4234022 C114.895756,36.2708166 113.175132,34.5181565 111.034959,34.4907217 L109.68758,34.4907217 L109.68758,29.7067218 C109.644414,27.3750584 111.40163,25.4069054 113.711294,25.1999997 C113.771008,25.1961664 113.829452,25.1999997 113.88726,25.1999997 L114.000336,25.1999997 C116.376427,25.2020968 118.303777,27.1356127 118.311821,29.5252774 L118.311821,48.8484713 C118.311821,55.85261 123.838553,61.7482765 130.635797,61.9910543 C130.792705,61.9968043 130.948978,62 131.106522,62 C134.598653,62.0014442 137.977497,60.7539105 140.63918,58.48036 C143.971723,60.4971289 147.813011,61.50177 151.700266,61.3732488 C155.448279,61.2294988 158.779564,60.1983321 161.187821,58.4567211 C167.957114,63.1589432 178.618623,63.3391098 183.75086,56.1254156 C185.704954,53.4790755 186.43277,50.1152376 185.748742,46.8915547 Z M140.194683,39.23 C141.223828,39.23 142.265985,40.5980747 142.265985,43.2116716 C142.194382,45.3699074 141.447231,47.444658 140.1383,49.12 C138.888955,47.418978 138.183977,45.3526396 138.122762,43.2123166 C138.123382,40.5980747 139.165538,39.23 140.194683,39.23 Z M160.910486,39.23 C161.939785,39.23 162.982097,40.5753439 162.982097,43.1469523 C162.931758,45.2483718 162.190917,47.2713165 160.878882,48.89 C159.599116,47.2570178 158.882068,45.2381552 158.838875,43.1463189 C158.838875,40.5753439 159.881187,39.23 160.908627,39.23 L160.910486,39.23 Z" id="logo"></path>
            </g>
        </g>
    </g>
</svg>